<svg width="250" height="200" xmlns="http://www.w3.org/2000/svg" preserveAspectRatio="xMidYMid meet">
 <defs>
  <linearGradient y2="0" x2="1" y1="0" x1="0" id="svg_4">
   <stop offset="0" stop-color="#0092ff"/>
   <stop offset="1" stop-color="#ff6d00"/>
  </linearGradient>
  <linearGradient spreadMethod="pad" y2="0" x2="1" y1="0" x1="0" id="svg_6">
   <stop offset="0" stop-color="#ff7f00"/>
   <stop offset="1" stop-color="#0080ff"/>
  </linearGradient>
 </defs>
 <g>
  <title>Layer 1</title>
  <g id="svg_1" fill="#FF9200" transform="translate(0 200) scale(0.1 -0.1)">
   <path fill="url(#svg_4)" id="svg_2" d="m1204.5102,1421c-25,-11 -54,-49 -54,-70c0,-7 -7,-19 -16,-25c-13,-10 -12,-20 15,-86c26,-65 28,-78 17,-95c-17,-26 -66,-31 -105,-11c-16,9 -42,16 -56,16c-23,0 -24,-2 -15,-20l11,-20l-33,20c-39,24 -93,26 -114,5c-9,-8 -20,-15 -25,-15c-6,0 -3,8 6,17c10,9 26,37 37,62c30,71 78,115 78,72c0,-23 42,-36 70,-21c14,8 20,21 20,46c0,28 -5,36 -26,44c-46,18 -123,12 -157,-12c-76,-51 -187,-177 -187,-211c0,-60 271,-190 287,-138c15,48 22,53 17,11c-7,-57 7,-93 55,-145c21,-23 42,-57 46,-74c6,-30 8,-31 21,-14c9,12 7,-2 -6,-41c-11,-33 -20,-60 -20,-62c0,-1 15,-6 33,-9c36,-8 104,-40 128,-61c13,-12 20,-10 50,11c20,13 60,31 90,41c30,9 55,18 57,19c1,1 -7,28 -18,61c-13,39 -15,53 -6,41c13,-17 15,-16 21,13c4,17 26,53 50,80c47,52 61,92 50,141c-5,22 -4,29 4,25c6,-4 11,-16 11,-28c0,-19 5,-20 53,-16c80,7 237,104 237,147c0,25 -120,163 -174,200c-35,25 -55,31 -95,31c-77,0 -101,-13 -101,-54c0,-25 6,-38 20,-46c28,-15 70,-2 70,21c0,43 48,-1 80,-73c11,-26 25,-50 30,-53c6,-3 10,-11 10,-17c0,-6 -8,-4 -18,5c-25,23 -80,21 -120,-3l-33,-20l11,20c10,18 8,20 -17,20c-15,-1 -39,-7 -53,-15c-38,-22 -86,-19 -104,6c-13,20 -13,27 5,73c36,91 39,106 23,113c-7,3 -14,13 -14,24c0,10 -10,30 -23,44c-24,29 -86,42 -123,26z"/>
  </g>
  <text font-style="normal" font-weight="normal" xml:space="preserve" text-anchor="start" font-family="'Montserrat Black'" font-size="24" id="svg_3" y="157.65306" x="95.15306" stroke-width="0" stroke="#000" fill="url(#svg_6)">GMS</text>
 </g>
</svg>